<svg id="svgBraille" xmlns="http://www.w3.org/2000/svg" xmlns:xlink="http://www.w3.org/1999/xlink" width="100%" height="100%"><circle fill="#6666FF" cx="25" cy="20" r="3.2"></circle><circle fill="#6666FF" cx="81" cy="20" r="3.2"></circle><circle fill="#6666FF" cx="81" cy="30" r="3.2"></circle><circle fill="#6666FF" cx="137" cy="20" r="3.2"></circle><circle fill="#6666FF" cx="147" cy="20" r="3.2"></circle><circle fill="#6666FF" cx="193" cy="20" r="3.2"></circle><circle fill="#6666FF" cx="203" cy="20" r="3.2"></circle><circle fill="#6666FF" cx="203" cy="30" r="3.2"></circle><circle fill="#6666FF" cx="249" cy="20" r="3.2"></circle><circle fill="#6666FF" cx="259" cy="30" r="3.2"></circle><circle fill="#6666FF" cx="305" cy="20" r="3.2"></circle><circle fill="#6666FF" cx="305" cy="30" r="3.2"></circle><circle fill="#6666FF" cx="315" cy="20" r="3.2"></circle><circle fill="#6666FF" cx="361" cy="20" r="3.2"></circle><circle fill="#6666FF" cx="361" cy="30" r="3.2"></circle><circle fill="#6666FF" cx="371" cy="20" r="3.2"></circle><circle fill="#6666FF" cx="371" cy="30" r="3.2"></circle><circle fill="#6666FF" cx="417" cy="20" r="3.2"></circle><circle fill="#6666FF" cx="417" cy="30" r="3.2"></circle><circle fill="#6666FF" cx="427" cy="30" r="3.2"></circle><circle fill="#6666FF" cx="473" cy="30" r="3.2"></circle><circle fill="#6666FF" cx="483" cy="20" r="3.2"></circle><circle fill="#6666FF" cx="529" cy="30" r="3.2"></circle><circle fill="#6666FF" cx="539" cy="20" r="3.2"></circle><circle fill="#6666FF" cx="539" cy="30" r="3.2"></circle></svg>